<svg width="324" height="143" viewBox="0 0 324 143" fill="none" xmlns="http://www.w3.org/2000/svg">
<path d="M162.968 20.15C165.107 20.25 167.151 21.0671 168.769 22.4696C170.974 24.5573 171.552 28.0384 170.509 30.8236C166.451 39.1759 156.801 44.7547 150.207 46.6003C146.262 47.5282 141.275 47.5282 137.678 46.1364C135.936 47.1802 134.467 50.5538 132.341 49.1519C129.263 46.7483 131.927 42.9864 130.151 40.3172C129.784 39.7676 128.861 39.7272 128.397 38.8279C125.96 33.4911 128.977 28.3863 132.341 24.327C137.948 18.0707 154.036 11.1001 162.968 20.15ZM144.29 24.3253C141.157 24.9052 137.619 26.2684 135.706 28.5023C133.791 30.7345 132.574 32.9112 133.734 35.2309C137.795 32.2154 139.767 28.0384 144.292 25.4868C144.29 25.0212 144.986 24.6732 144.29 24.3253ZM163.202 25.4868C155.196 24.7892 149.163 30.8236 143.478 36.6226C143.13 37.5505 141.043 38.5943 142.666 39.6381C150.325 40.334 157.633 38.1321 163.202 33.0255C164.827 31.5178 165.984 29.5461 165.175 27.4568C164.827 26.6466 164.009 25.8347 163.202 25.4868ZM232.573 60.0575C236.287 69.1073 239.418 83.3747 232.573 92.0766C230.718 94.1642 227.47 96.0888 225.383 94.5122C217.725 88.3652 214.479 79.5473 209.722 71.6572C209.026 71.3093 209.026 72.2388 208.678 72.5868C206.938 80.5911 210.186 91.0328 204.735 97.2957C202.647 97.6437 200.694 96.5696 199.978 94.5122C197.309 86.2759 200.09 77.6899 200.786 69.4536C202.412 65.2766 203.108 60.4054 206.705 57.2723C212.505 59.5919 215.289 66.0902 218.651 70.8471C221.09 74.4425 223.06 78.5035 225.843 81.7509C228.279 80.7071 227.08 77.5235 227.005 75.6023C226.074 68.0618 223.986 61.1013 222.012 53.9088C221.9 52.0531 220.856 48.92 222.824 47.7602C228.052 50.0815 230.252 55.5325 232.573 60.0575ZM197.539 57.2723C197.539 59.0136 196.147 61.1887 194.984 61.4492C183.848 63.189 171.435 62.1451 160.995 65.6246C160.647 66.9003 162.155 67.1323 162.967 67.4802C171.897 68.872 181.297 69.22 189.998 71.4253C194.599 72.5935 196.265 78.0396 196.613 82.5628C196.826 86.1296 195.455 90.4512 191.972 92.8885C183.389 98.3412 170.28 98.1076 161.576 93.1221C158.25 91.2563 155.08 88.2509 154.848 84.5378C154.868 81.5896 156.125 79.2683 158.213 78.1572C166.567 74.7921 176.891 76.6511 184.085 80.9407C184.546 83.262 182.034 83.136 180.833 83.9579C172.827 88.5988 166.796 78.7405 159.371 82.3325C158.327 83.0284 157.573 84.9698 158.791 85.5817C167.955 89.6427 178.165 86.7415 187.213 84.1899C188.257 83.8419 189.535 82.7981 189.649 81.7543C189.301 78.0412 185.126 77.231 182.456 76.1872C174.568 74.2155 165.868 74.2155 157.398 73.4037C155.774 73.0557 153.705 71.9245 153.222 70.6201C152.295 67.8366 152.295 64.0075 154.382 61.6879C165.17 52.1741 181.527 52.9877 195.216 55.5393C196.145 55.8805 197.189 56.2284 197.539 57.2723ZM146.843 61.6812C147.887 72.817 148.467 83.1444 148.235 94.8601C148.003 96.3662 146.264 96.7158 145.104 97.2957C143.248 97.6437 140.849 97.2487 140.115 96.2519C137.447 91.9572 138.375 86.1599 138.143 80.9391C138.491 72.7044 138.375 63.7706 140.697 56.1125C141.14 54.9997 142.436 54.0248 143.48 54.719C146.264 56.1125 146.728 58.8977 146.843 61.6812ZM275.733 60.0575C276.292 60.9954 276.875 62.4443 275.733 63.073C270.513 65.3926 263.438 64.3488 257.403 65.0446C255.78 66.4364 254.502 68.756 255.08 70.8454C255.664 71.1933 256.183 71.7228 256.824 71.6556C260.533 71.8892 266.104 69.9158 268.543 73.3953C269.138 74.4307 268.462 78.2967 266.803 78.3841C262.276 78.9674 254.833 77.816 252.647 78.9674C249.863 80.8231 250.093 84.4185 249.049 87.3214C251.023 88.5972 253.089 87.2911 255.428 86.9717C259.725 86.2759 264.482 85.0001 268.771 85.9279C269.583 87.4357 270.745 89.0611 269.931 90.9168C262.618 96.7175 253.184 102.663 243.134 98.4572C239.363 96.7662 237.682 91.0328 238.959 86.1633C239.769 82.6821 243.365 79.3187 241.163 75.6056C240.815 73.9802 241.744 72.5901 243.136 72.2422C246.964 72.2422 246.15 67.4853 248.123 65.28C245.92 62.8444 240.353 62.9604 240.933 58.0875C243.602 56.6957 246.851 57.1596 249.863 56.6957C256.708 55.3023 264.364 54.4904 271.33 55.3023C272.716 55.5813 274.574 58.3178 275.733 60.0575ZM110.067 33.6071C120.773 42.3578 134.662 57.2739 132.922 74.4425C130.833 88.0173 116.448 98.2253 104.267 101.474C92.4334 104.954 77.5845 104.606 65.5174 101.822C64.7055 104.028 63.8937 106.694 61.3421 107.623C59.7184 108.203 57.629 107.855 56.3532 106.811C52.7578 103.446 55.6574 96.9495 50.4365 94.8635C40.2269 90.5705 29.2053 82.1006 23.9862 71.6606C23.2903 69.573 24.1022 67.4853 25.378 65.8616C33.384 59.4809 43.476 56.9294 53.5697 54.956C54.1496 55.188 53.9176 54.3761 54.3816 54.1441C54.9615 47.1836 55.1934 40.1054 57.3971 33.8408C57.8996 32.9617 59.1368 32.681 59.9503 33.2609C66.331 38.1321 63.3138 47.2996 66.099 53.9105C78.2803 54.4904 90.4617 55.0703 100.09 61.9165C103.339 64.5841 104.131 69.6788 103.105 72.5901C102.082 75.4964 98.698 77.579 95.5648 77.8076C93.4755 77.8076 89.5322 78.011 89.7641 76.4175C89.9961 74.8223 96.8608 72.2119 94.753 70.0352C91.7223 66.9071 76.5591 65.0463 67.1613 63.8865C66.0015 63.6546 64.9375 64.0025 64.9375 65.2783C64.7055 74.0945 64.0097 83.8386 65.5174 92.3102C65.6334 92.8918 66.3293 93.5877 66.9109 93.7003C83.4995 96.3696 101.018 94.8601 114.011 85.348C120.044 80.4785 122.017 73.6289 120.971 66.0902C115.751 45.0926 93.8251 32.4456 75.8431 24.3253C58.3266 16.6689 38.9511 12.7239 18.1855 13.7694C14.8792 14.0114 9.63986 15.1527 9.6012 16.3226C9.56254 17.4925 15.5364 17.1244 14.8203 19.3381C14.106 21.5502 8.03462 20.2374 6.23607 19.6861C4.43753 19.1347 4.61234 16.5529 5.07627 14.9292C9.6012 6.92482 22.228 6.27768 27.9312 5.99697C59.4847 5.18342 89.9978 17.2001 110.067 33.6071ZM53.2218 64.6984C45.2157 64.8144 36.7474 65.6262 29.323 68.4098C27.8152 68.9897 25.9579 70.6134 27.1177 72.5868C30.1332 76.6461 34.4463 79.9793 38.4871 82.3308C42.528 84.679 47.885 87.6676 52.7578 88.3652C53.9176 80.8231 53.9176 73.3986 53.8017 65.6262C53.3361 65.3943 53.8 64.9303 53.2218 64.6984ZM293.016 54.1408C292.668 64.2328 283.269 70.4991 283.269 80.5911C283.617 80.9391 283.852 81.403 284.313 81.1744C291.857 72.9364 299.279 61.219 310.301 57.7395C313.205 57.5076 315.829 60.0306 316.915 61.9165C320.744 69.5729 319.82 80.3625 314.481 87.323C308.973 94.1558 299.397 101.012 288.496 99.8507C283.973 110.988 280.835 122.706 279.095 134.887C278.167 137.323 275.965 135.119 274.574 134.655C265.178 127.231 272.893 107.576 273.53 105.068C274.167 102.567 276.682 96.6671 278.52 91.727C274.111 83.8403 276.895 74.3248 280.49 67.0163C283.274 62.1435 287.106 57.2706 291.63 53.5592C292.204 53.5609 292.668 53.6769 293.016 54.1408ZM311.698 66.6701C310.306 66.4381 309.724 68.2955 308.566 68.6434C303.231 74.6761 297.893 80.7088 295.223 87.9013C298.822 88.3652 301.836 86.0456 304.971 84.7698C310.306 81.4047 313.671 75.8393 313.323 69.457C313.089 68.4098 312.162 67.5979 311.698 66.6701Z" fill="white"/>
</svg>
